<?xml version="1.0" standalone="no"?><svg xmlns="http://www.w3.org/2000/svg" viewBox="0 0 1440 320"><path fill="#002966" fill-opacity="1" d="M0,320L14.1,277.3C28.2,235,56,149,85,144C112.9,139,141,213,169,224C197.6,235,226,181,254,138.7C282.4,96,311,64,339,42.7C367.1,21,395,11,424,37.3C451.8,64,480,128,508,154.7C536.5,181,565,171,593,154.7C621.2,139,649,117,678,138.7C705.9,160,734,224,762,256C790.6,288,819,288,847,250.7C875.3,213,904,139,932,122.7C960,107,988,149,1016,149.3C1044.7,149,1073,107,1101,117.3C1129.4,128,1158,192,1186,213.3C1214.1,235,1242,213,1271,224C1298.8,235,1327,277,1355,293.3C1383.5,309,1412,299,1426,293.3L1440,288L1440,320L1425.9,320C1411.8,320,1384,320,1355,320C1327.1,320,1299,320,1271,320C1242.4,320,1214,320,1186,320C1157.6,320,1129,320,1101,320C1072.9,320,1045,320,1016,320C988.2,320,960,320,932,320C903.5,320,875,320,847,320C818.8,320,791,320,762,320C734.1,320,706,320,678,320C649.4,320,621,320,593,320C564.7,320,536,320,508,320C480,320,452,320,424,320C395.3,320,367,320,339,320C310.6,320,282,320,254,320C225.9,320,198,320,169,320C141.2,320,113,320,85,320C56.5,320,28,320,14,320L0,320Z"></path></svg>